# xmcd
#
# Track frame offsets: 
#        150
#        16387
#        39899
#        70057
#        94934
#        122775
#        141143
#        169067
#
# Disc length: 2536 seconds
#
# Revision: 1
# Processed by: cddbd v1.5.2PL0 Copyright (c) Steve Scherf et al.
# Submitted via: ExactAudioCopy v1.0b4
#
DISCID=6409e608
DTITLE=Coleman Hawkins - While We're Young
DYEAR=1960
DGENRE=Jazz
TTITLE0=While We're Young
TTITLE1=Then I'll Be Tired Of You
TTITLE2=I'll Get By
TTITLE3=Trouble Is A Man
TTITLE4=Poor Butterfly
TTITLE5=Mighty Like A Rose
TTITLE6=For You For Me For Evermore
TTITLE7=At Dawning
EXTD=YEAR: 1960
EXTT0=
EXTT1=
EXTT2=
EXTT3=
EXTT4=
EXTT5=
EXTT6=
EXTT7=
PLAYORDER=
